<?xml version="1.0" standalone="no"?>
<!DOCTYPE svg PUBLIC "-//W3C//DTD SVG 20010904//EN"
 "http://www.w3.org/TR/2001/REC-SVG-20010904/DTD/svg10.dtd">
<svg version="1.0" xmlns="http://www.w3.org/2000/svg"
 width="960.000000pt" height="960.000000pt" viewBox="0 0 960.000000 960.000000"
 preserveAspectRatio="xMidYMid meet">
<metadata>
Created by potrace 1.14, written by Peter Selinger 2001-2017
</metadata>
<g transform="translate(0.000000,960.000000) scale(0.100000,-0.100000)"
fill="#000000" stroke="none">
<path d="M2755 9585 c-70 -13 -163 -45 -255 -87 -36 -17 -81 -37 -100 -45 -19
-8 -42 -19 -50 -24 -8 -5 -22 -12 -30 -15 -49 -19 -226 -109 -228 -116 -2 -4
-10 -8 -17 -8 -7 0 -42 -16 -77 -36 -34 -20 -92 -52 -128 -71 -36 -18 -71 -41
-78 -51 -7 -9 -14 -15 -15 -13 -4 8 -47 -10 -47 -20 0 -5 -4 -9 -9 -9 -6 0
-59 -28 -118 -63 -59 -35 -119 -70 -133 -78 -14 -8 -27 -16 -30 -19 -3 -3 -21
-14 -40 -24 -73 -40 -380 -249 -380 -258 0 -5 -5 -6 -10 -3 -6 3 -13 -1 -16
-9 -3 -9 -12 -16 -20 -16 -8 0 -14 -4 -14 -10 0 -5 -6 -10 -14 -10 -8 0 -16
-3 -18 -7 -2 -5 -25 -26 -53 -47 -66 -52 -138 -128 -184 -196 -35 -50 -74
-117 -76 -130 0 -3 -8 -19 -18 -36 -9 -17 -13 -34 -10 -38 4 -3 2 -6 -3 -6
-12 0 -16 -26 -18 -105 -1 -84 8 -111 52 -164 65 -77 176 -131 298 -146 76 -9
229 -56 333 -101 176 -78 379 -247 490 -408 8 -12 17 -23 20 -26 3 -3 11 -14
18 -25 7 -11 28 -46 47 -78 20 -32 36 -63 36 -68 0 -5 5 -9 11 -9 5 0 8 -4 4
-9 -3 -5 2 -16 10 -24 8 -9 15 -21 15 -28 0 -6 9 -26 19 -43 11 -17 20 -35 21
-41 1 -5 8 -26 17 -45 8 -19 28 -75 45 -125 16 -49 33 -97 36 -105 3 -8 6 -19
8 -25 1 -5 10 -37 19 -70 9 -33 18 -69 20 -80 9 -50 33 -154 38 -162 3 -4 6
-28 8 -53 1 -25 5 -49 8 -55 3 -5 6 -21 7 -35 1 -14 4 -37 7 -51 6 -32 20
-134 23 -169 1 -14 2 -25 3 -25 1 0 4 -22 6 -50 2 -27 6 -84 10 -125 12 -142
15 -246 20 -645 6 -562 21 -1093 40 -1455 4 -63 6 -124 5 -135 -1 -23 -2 -20
4 -105 3 -36 6 -98 8 -137 1 -40 6 -73 11 -73 4 0 3 -8 -2 -19 -6 -10 -8 -21
-5 -24 4 -3 8 -43 9 -89 2 -46 6 -117 9 -158 11 -145 19 -296 20 -352 1 -32 3
-58 6 -58 3 0 6 -19 6 -43 1 -23 5 -87 9 -142 4 -55 9 -118 10 -140 2 -22 6
-76 10 -120 4 -44 8 -98 10 -120 5 -61 17 -206 31 -346 2 -24 6 -73 9 -109 3
-36 8 -83 10 -105 3 -22 7 -65 10 -95 2 -30 7 -73 9 -95 2 -22 7 -71 10 -109
3 -37 8 -80 10 -95 3 -14 8 -60 12 -101 3 -41 8 -86 9 -100 2 -14 6 -52 10
-85 3 -33 8 -78 11 -100 2 -22 6 -58 9 -80 3 -22 7 -60 10 -85 16 -147 70
-276 144 -347 l25 -24 790 4 c435 2 802 6 816 9 14 3 45 9 70 12 56 9 88 14
120 21 45 9 137 25 172 30 15 2 35 6 45 9 10 3 30 8 46 11 68 13 81 17 100 26
15 9 18 8 12 -2 -6 -8 -4 -10 5 -4 7 4 29 12 49 17 20 5 43 10 51 12 8 2 42
11 75 20 33 9 69 19 81 21 12 3 40 11 63 20 23 8 42 14 44 13 1 0 36 10 77 23
41 12 77 23 80 24 24 5 212 71 235 83 16 8 37 16 45 17 8 1 27 7 43 13 54 24
82 35 87 37 3 1 22 9 44 18 21 9 40 17 42 17 2 0 32 13 66 28 35 16 78 34 96
41 17 8 32 18 32 24 0 6 3 7 6 4 6 -6 304 139 314 153 3 4 15 10 28 14 12 4
22 12 22 17 0 6 4 8 9 4 5 -3 16 0 23 7 8 7 29 21 48 32 101 55 242 144 252
160 4 6 8 8 8 3 0 -6 92 52 135 85 6 5 64 47 130 95 66 47 122 89 125 92 3 3
39 33 80 65 77 62 99 79 215 181 91 79 260 242 349 334 39 41 86 89 104 107
17 18 32 34 32 37 0 2 21 26 48 54 26 28 65 72 87 99 22 26 48 56 58 66 9 10
17 20 17 23 0 3 8 13 18 23 24 25 49 57 102 127 47 62 63 83 93 117 9 12 17
24 17 28 0 3 8 15 18 26 29 31 87 118 84 126 -1 5 2 8 8 8 8 0 35 36 75 99 6
9 30 45 54 81 103 154 277 441 273 453 -1 4 2 7 6 7 4 0 23 28 41 63 18 34 45
85 61 112 28 49 29 52 29 215 l1 165 -35 50 c-40 56 -93 107 -175 168 -30 23
-60 46 -67 51 -34 30 -43 36 -51 36 -5 0 -17 9 -27 20 -10 11 -24 20 -31 20
-7 0 -14 4 -16 8 -1 5 -57 48 -123 96 -66 48 -133 97 -149 109 -15 12 -40 29
-55 37 -14 8 -28 18 -31 22 -5 7 -255 186 -363 260 -27 18 -54 38 -60 43 -7 6
-39 28 -72 50 -33 22 -62 42 -65 46 -12 13 -100 69 -109 69 -6 0 -11 4 -11 8
0 5 -30 28 -67 52 -38 25 -70 47 -73 50 -10 12 -101 70 -110 70 -4 0 -10 4
-12 8 -1 5 -46 37 -98 72 -52 36 -96 68 -98 72 -2 4 -7 8 -12 8 -10 0 -133 81
-142 95 -4 5 -8 6 -8 2 0 -4 -10 2 -22 14 -13 11 -32 25 -43 30 -24 11 -58 32
-65 40 -6 7 -214 144 -450 296 -96 62 -180 117 -187 123 -7 5 -15 10 -19 10
-4 0 -22 11 -41 26 -18 14 -33 21 -33 17 0 -4 -4 -2 -8 5 -9 14 -149 102 -162
102 -5 0 -10 3 -12 8 -4 10 -137 92 -149 92 -5 0 -9 4 -9 9 0 5 -10 13 -22 17
-13 4 -25 10 -28 13 -10 12 -90 61 -100 61 -5 0 -10 3 -10 8 0 4 -9 12 -20 17
-17 8 -61 35 -245 148 -11 7 -35 22 -54 34 -19 12 -38 20 -43 17 -4 -3 -8 -1
-8 4 0 6 -26 25 -57 42 -32 18 -60 36 -63 39 -3 4 -21 15 -40 24 -19 10 -47
26 -62 35 -14 9 -57 35 -95 56 -37 22 -69 43 -71 48 -2 4 -10 8 -18 8 -8 0
-24 9 -36 20 -12 10 -25 17 -30 14 -4 -3 -8 -2 -8 3 0 4 -18 17 -40 27 -22 11
-40 24 -40 29 0 6 -3 8 -6 4 -4 -3 -21 5 -39 18 -17 14 -34 25 -38 25 -9 0
-162 103 -165 112 -2 4 -10 8 -18 8 -8 0 -14 4 -14 9 0 5 -13 14 -30 21 -16 7
-30 16 -30 21 0 4 -8 10 -17 13 -10 3 -30 17 -45 31 -16 14 -28 22 -28 18 0
-4 -4 -3 -8 3 -4 5 -47 41 -97 79 -49 37 -106 82 -126 99 -200 172 -336 307
-449 446 -47 58 -57 70 -77 94 -7 8 -13 18 -13 21 0 8 -44 69 -52 73 -5 2 -8
10 -8 18 0 8 -3 14 -7 14 -5 0 -13 10 -19 23 -6 12 -28 56 -51 98 -36 67 -99
221 -107 260 -2 8 -6 21 -9 29 -5 15 -19 81 -23 110 -6 57 -15 104 -19 108 -3
3 0 11 6 19 6 7 7 13 2 13 -7 0 -10 153 -3 170 1 3 2 9 1 13 -1 8 3 34 25 151
3 16 7 33 9 36 2 4 7 21 10 37 3 17 14 52 25 77 10 25 17 46 13 46 -3 0 -1 6
5 13 23 27 31 192 13 255 -5 17 -7 32 -5 32 3 0 -2 7 -10 16 -9 8 -16 21 -16
27 -1 19 -63 83 -99 102 -35 18 -124 46 -138 44 -4 -1 -10 0 -13 1 -18 8 -216
5 -265 -5z m410 -4664 c3 -5 2 -12 -3 -15 -5 -3 -9 1 -9 9 0 17 3 19 12 6z
m-345 -435 c0 -2 -8 -10 -17 -17 -16 -13 -17 -12 -4 4 13 16 21 21 21 13z
m1821 -1773 c13 -16 12 -17 -3 -4 -17 13 -22 21 -14 21 2 0 10 -8 17 -17z"/>
</g>
</svg>
