
<svg xmlns="http://www.w3.org/2000/svg" version="1.1" xmlns:xlink="http://www.w3.org/1999/xlink" preserveAspectRatio="none" x="0px" y="0px" width="106px" height="120px" viewBox="0 0 106 120">
  <title property="dc:title">Beaker - Erlenmeyer Flask</title>
  <desc property="dc:creator">Charlie Schmidt</desc>
<defs>
<linearGradient id="Gradient_1" gradientUnits="userSpaceOnUse" x1="-35.5" y1="-48.2" x2="-38.099999999999994" y2="-52.7" spreadMethod="pad">
<stop  offset="0%" stop-color="#999999"/>

<stop  offset="100%" stop-color="#FFFFFF"/>
</linearGradient>

<linearGradient id="Gradient_2" gradientUnits="userSpaceOnUse" x1="-32.574999999999996" y1="0.7" x2="40.975" y2="0.7" spreadMethod="pad">
<stop  offset="0%" stop-color="#FFFFFF"/>

<stop  offset="100%" stop-color="#FFFFFF" stop-opacity="0"/>
</linearGradient>

<filter id="Filter_1" x="-20%" y="-20%" width="140%" height="140%" color-interpolation-filters="sRGB">
<feColorMatrix in="SourceGraphic" type="matrix" values="1 0 0 0 0 0 1 0 0 0 0 0 1 0 0 0 0 0 0.88 0" result="result1"/>
</filter>

<g id="Tweener_1_0_Layer1_0_FILL">
<path fill="#F0F3FF" stroke="none" d="
M -38.75 -53.6
Q -38.95 -53.45 -39.15 -53.35 -43.8 -50.75 -47.5 -48.05 -48.3 -47.5 -49.1 -46.85 -51.2 -45.25 -52.35 -42.6 -54.05 -38.9 -49.45 -37.6 -33 -35.45 -32.15 -7.6 -32.1 22.15 -28.45 54.2 -28.1083984375 58.81953125 -25.15 59.95
L -24.85 59.75
Q 1.45 60.75 20.8 49.55 40.2 38.4 52.5 15.1
L 52.8 14.95
Q 53.1884765625 11.6673828125 49.5 9.2 23.55 -9.95 -2.2 -24.9 -25.9 -39.6 -19.5 -54.9 -18.8 -59.25 -22.35 -59.8 -25.3 -60.25 -27.7 -59.2 -28.65 -58.85 -29.55 -58.4 -33.9 -56.5 -38.75 -53.6
M 2.35 -14.5
Q 3.8 -14.25 4.75 -12.9
L 43.5 12.65
Q 46.743359375 15.675 47 18.7 21.25 52.95 -19 56.75 -22.8025390625 54.96953125 -22.45 50.7
L -25.2 4.4
Q -25.75 3.15 -25.4 1.4 -12.65 -7.8 2.35 -14.5
M -26.45 -57.05
Q -22.9 -57.15 -26.3 -52.8 -28.55 -50.35 -31 -48.4 -34.55 -45.7 -38.55 -44.05 -41.3 -42.95 -44.25 -42.45 -48.8 -41.25 -47.8 -44.7 -46.75 -45.8 -45.55 -46.9 -42.25 -49.8 -38.4 -52.05 -34.45 -54.3 -29.95 -55.9 -28.2 -56.5 -26.45 -57.05 Z"/>

<path fill="url(#Gradient_1)" stroke="none" d="
M -26.3 -52.8
Q -22.9 -57.15 -26.45 -57.05 -28.2 -56.5 -29.95 -55.9 -34.45 -54.3 -38.4 -52.05 -42.25 -49.8 -45.55 -46.9 -46.75 -45.8 -47.8 -44.7 -48.8 -41.25 -44.25 -42.45 -41.3 -42.95 -38.55 -44.05 -34.55 -45.7 -31 -48.4 -28.55 -50.35 -26.3 -52.8 Z"/>

<path fill="#75E901" stroke="none" d="
M 4.4 -12.55
L 2.35 -14.5
Q -12.65 -7.8 -25.4 1.4 -25.75 3.15 -25.2 4.4 -7.6 1.15 4.4 -12.55 Z"/>

<path fill="#80FE01" stroke="none" d="
M 4.75 -12.9
Q 3.8 -14.25 2.35 -14.5
L 4.4 -12.55
Q -7.6 1.15 -25.2 4.4
L -22.45 50.7
Q -22.8025390625 54.96953125 -19 56.75 21.25 52.95 47 18.7 46.743359375 15.675 43.5 12.65
L 4.75 -12.9
M 7 25.65
Q 20.6 17.75 35.65 12.95 20.6 17.75 7 25.65 -6.6 33.45 -18.35 44.05 -6.6 33.45 7 25.65 Z"/>
</g>

<g id="Tweener_1_0_Layer0_0_FILL">
<path fill="url(#Gradient_2)" stroke="none" d="
M 5.05 -11.95
Q 2.5125 -13.962109375 0 -16 -1.1748046875 -16.949609375 -2.35 -17.95 -4.5123046875 -19.84921875 -6.6 -21.85 -8.5998046875 -23.54921875 -10.5 -25.35 -13.087109375 -27.785546875 -15.45 -30.2 -17.56171875 -32.422265625 -19.3 -34.85 -20.799609375 -36.8232421875 -22.05 -38.9 -23.7357421875 -41.6814453125 -24.6 -44.85 -25.075 -44.2630859375 -25.65 -43.7 -26.5751953125 -42.78828125 -27.65 -42 -29.813671875 -40.2416015625 -32.55 -40.1 -31.75 -38.5625 -30.95 -37 -29.3623046875 -33.84921875 -27.7 -30.8 -26.174609375 -27.9984375 -24.5 -25.3 -22.3376953125 -21.8 -20.2 -18.4 -18.8001953125 -16.2 -17.4 -14 -14.857421875 -9.90625 -11.9 -5.65 -8.90625 -1.3375 -3.9 3.95 1.1177734375 9.2841796875 3 12.6 4.937890625 15.97578125 2.8 19.85 0.74609375 23.5927734375 1.15 23.1
L -13.85 41.6
Q -23.7685546875 53.8986328125 -13.7 51.95 -8.0029296875 50.85234375 4.1 45.2
L 4.1 45.2 5.3 40.7 4.15 45.45 4.15 45.55
Q 6.58671875 44.5849609375 8.65 43.6 11.6123046875 42.2125 14.55 40.7 18.5869140625 38.5732421875 22.35 35.55 24.7123046875 33.737109375 27 31.8 30.4359375 28.89453125 33.1 25.7 33.7822265625 24.909765625 34.4 24.1 38.137890625 19.2654296875 40.7 13.75 38.8125 12.4751953125 36.95 11.2 26.5630859375 4.151953125 16.45 -3.35 13.4626953125 -5.512109375 10.5 -7.75 7.7875 -9.8375 5.05 -11.95 Z"/>
</g>

<path id="Tweener_1_0_Layer1_0_1_STROKES" stroke="#D7DFFF" stroke-width="1" stroke-linejoin="round" stroke-linecap="round" fill="none" d="
M -26.45 -57.05
Q -22.9 -57.15 -26.3 -52.8 -28.55 -50.35 -31 -48.4 -34.55 -45.7 -38.55 -44.05 -41.3 -42.95 -44.25 -42.45
M 52.8 14.95
Q 53.1884765625 11.6673828125 49.5 9.2 23.55 -9.95 -2.2 -24.9 -25.9 -39.6 -19.5 -54.9 -18.8 -59.25 -22.35 -59.8 -25.3 -60.25 -27.7 -59.2 -28.65 -58.85 -29.55 -58.4 -33.9 -56.5 -38.75 -53.6 -38.95 -53.45 -39.15 -53.35 -43.8 -50.75 -47.5 -48.05 -48.3 -47.5 -49.1 -46.85 -51.2 -45.25 -52.35 -42.6 -54.05 -38.9 -49.45 -37.6 -33 -35.45 -32.15 -7.6 -32.1 22.15 -28.45 54.2 -28.1083984375 58.81953125 -25.15 59.95
M -24.85 59.75
Q 1.45 60.75 20.8 49.55 40.2 38.4 52.5 15.1"/>

<path id="Tweener_1_0_Layer1_0_2_STROKES" stroke="#5EBA01" stroke-width="1" stroke-linejoin="round" stroke-linecap="round" fill="none" d="
M 47 18.7
Q 21.25 52.95 -19 56.75
M -18.35 44.05
Q -6.6 33.45 7 25.65 20.6 17.75 35.65 12.95"/>
</defs>

<g transform="matrix( 1, 0, 0, 1, 53.3,60.45) ">
<g transform="matrix( 1, 0, 0, 1, 0,0) ">
<use filter="url(#Filter_1)" xlink:href="#Tweener_1_0_Layer1_0_FILL"/>

<use filter="url(#Filter_1)" xlink:href="#Tweener_1_0_Layer1_0_1_STROKES"/>

<use filter="url(#Filter_1)" xlink:href="#Tweener_1_0_Layer1_0_2_STROKES"/>
</g>

<g transform="matrix( 1, 0, 0, 1, 0,0) ">
<use filter="url(#Filter_1)" xlink:href="#Tweener_1_0_Layer0_0_FILL"/>
</g>
</g>
</svg>
