
<svg xmlns="http://www.w3.org/2000/svg" version="1.1" xmlns:xlink="http://www.w3.org/1999/xlink" preserveAspectRatio="none" x="0px" y="0px" width="106px" height="120px" viewBox="0 0 106 120">
<defs>
<radialGradient id="Gradient_1" gradientUnits="userSpaceOnUse" cx="0" cy="0" r="80.15" fx="0" fy="0" gradientTransform="matrix( 1, 0, 0, 1, 72.65,61.35) " spreadMethod="pad">
<stop  offset="0%" stop-color="#FFFFFF"/>

<stop  offset="100%" stop-color="#8E858A"/>
</radialGradient>

<linearGradient id="Gradient_2" gradientUnits="userSpaceOnUse" x1="10.1125" y1="48.275" x2="58.78750000000001" y2="58.225" spreadMethod="pad">
<stop  offset="0%" stop-color="#FFFFFF"/>

<stop  offset="100%" stop-color="#FFFFFF" stop-opacity="0"/>
</linearGradient>

<g id="Layer1_0_FILL">
<path fill="#FFCC66" stroke="none" d="
M 42.75 97.1
Q 41.5 97.7 39.95 98 41 103.8 33.05 108.65
L 27.95 115.3 37.3 110.15 38.45 118
Q 39.1 109 47.35 108.5 45.75 103.35 40.85 107.5 43.5 102.55 42.75 97.1
M 63 96.45
L 61.5 97.7
Q 61.3 107.75 53.8 109.4 61.1 109.05 48.95 120.2
L 60.3 111.95 63 116.15 63 109.55 68.95 108.4 63 106.25 63 96.45
M 13.45 11.6
Q 10.35 13.8 9.45 21.45
L 14.9 17.6 20.4 13.7 13.45 11.6 Z"/>

<path fill="#CCCCCC" stroke="none" d="
M 31.7 77.65
Q 38.8 88.3 39.95 98 41.5 97.7 42.75 97.1 48 94.4 47.25 84.9 38.15 80.9 31.7 77.65 Z"/>

<path fill="#666666" stroke="none" d="
M 73.3 43.65
Q 71.6 42.7 69.85 41.85 75.35 66.5 51.2 76.95 53.3 77.8 55.6 78.3 77.5 71.85 73.3 43.65
M 80.95 49.4
Q 79.15 47.1 77.85 46.35 81.55 68.75 70.3 77.25 73.2 76.4 76.3 74.95 78.5 73.95 77.85 73.8 85.75 56.8 80.95 49.4 Z"/>

<path fill="url(#Gradient_1)" stroke="none" d="
M 69.85 41.85
Q 62.15 37.8 54.6 37 35.35 34.45 36.05 14.55 36.1 13.05 36.25 11.45 36.05 7.15 32.9 4 29.6 0.7 24.85 0.7 20.15 0.7 16.8 4 13.65 7.2 13.45 11.6
L 20.4 13.7 14.9 17.6
Q 18.9 19.2 15.35 21.55 -8.15 44.9 12.25 65.8 16.25 69.9 31.7 77.65 38.15 80.9 47.25 84.9 52 87.05 57.5 89.35 56.15 90.15 61.5 97.7
L 63 96.45 67 93.1
Q 65.65 85.15 80.75 73.15
L 77.85 73.8
Q 78.5 73.95 76.3 74.95 73.2 76.4 70.3 77.25 63.55 79.4 57.8 78.7 56.7 78.55 55.6 78.3 53.3 77.8 51.2 76.95 38.9 71.65 33.9 53.1 38.9 71.65 51.2 76.95 75.35 66.5 69.85 41.85
M 25.55 5.9
Q 26 5.8 26.5 6.1
L 27 6.4 27.15 6.55 27.65 7.2 27.8 7.7
Q 27.9 8.2 27.85 8.45
L 27.7 9.05
Q 27.65 9.3 27.35 9.65
L 27.15 9.85
Q 26.8 10.2 26.6 10.25 25.75 10.7 24.85 10.4 24.75 10.35 24.6 10.35 23.85 10.3 23.25 9.7 22.7 9.15 22.55 8.4 22.5 8.05 22.55 7.75 22.5 7.55 22.55 7.2 22.75 6.75 23.2 6.55 23.65 6 24.35 5.85 24.9 5.75 25.45 5.9 25.5 5.9 25.55 5.9
M 77.85 46.35
Q 75.55 44.95 73.3 43.65 77.5 71.85 55.6 78.3 56.7 78.55 57.8 78.7 63.55 79.4 70.3 77.25 81.55 68.75 77.85 46.35
M 105.85 69.8
Q 91.36640625 61.5236328125 82.65 51.4
L 82.3 51.15 80.95 49.4
Q 85.75 56.8 77.85 73.8
L 80.75 73.15
Q 93.2 68.4 105.85 69.8
M 81.6 50.15
Q 81.9375 50.6375 82.3 51.15
L 82.65 51.4
Q 82.1265625 50.795703125 81.6 50.15 Z"/>

<path fill="#FFFFFF" stroke="none" d="
M 24.8 7.55
L 24.65 7.05
Q 24.5 6.65 24.35 6.55 24.1 6.4 23.7 6.4
L 23.35 6.45
Q 23.25 6.5 23.2 6.55 22.75 6.75 22.55 7.2 22.5 7.55 22.55 7.75 22.6 8.05 22.85 8.2 22.95 8.35 23.5 8.6
L 23.85 8.6
Q 24.05 8.6 24.3 8.4 24.8 8 24.8 7.55 Z"/>

<path fill="#000000" stroke="none" d="
M 25.95 6.15
Q 25.75 6 25.45 5.9 24.9 5.75 24.35 5.85 23.65 6 23.2 6.55 23.25 6.5 23.35 6.45
L 23.7 6.4
Q 24.1 6.4 24.35 6.55 24.5 6.65 24.65 7.05
L 24.8 7.55
Q 24.8 8 24.3 8.4 24.05 8.6 23.85 8.6
L 23.5 8.6
Q 22.95 8.35 22.85 8.2 22.6 8.05 22.55 7.75 22.5 8.05 22.55 8.4 22.7 9.15 23.25 9.7 23.85 10.3 24.6 10.35 24.75 10.35 24.85 10.4 25.45 10.35 26 10 26.7 9.55 26.95 8.85 27.15 8.15 27 7.4 26.75 6.6 25.95 6.15 Z"/>

<path fill="#FFFF00" stroke="none" d="
M 26.5 6.1
Q 26 5.8 25.55 5.9 25.5 5.9 25.45 5.9 25.75 6 25.95 6.15 26.75 6.6 27 7.4 27.15 8.15 26.95 8.85 26.7 9.55 26 10 25.45 10.35 24.85 10.4 25.75 10.7 26.6 10.25 26.8 10.2 27.15 9.85
L 27.35 9.65
Q 27.65 9.3 27.7 9.05
L 27.85 8.45
Q 27.9 8.2 27.8 7.7
L 27.65 7.2 27.15 6.55 27 6.4 26.5 6.1 Z"/>
</g>

<g id="Layer0_0_FILL">
<path fill="url(#Gradient_2)" stroke="none" d="
M 58.05 86.5
Q 42.35 58.75 12.2 27.95 -4.25 53 21.55 66.9
L 58.05 86.5 Z"/>
</g>

<path id="Layer1_0_1_STROKES" stroke="#989993" stroke-width="1" stroke-linejoin="round" stroke-linecap="round" fill="none" d="
M 80.95 49.4
L 82.325 51.15
Q 81.9375 50.6375 81.6 50.15 81.25 49.75 80.95 49.4 79.15 47.1 77.85 46.35
M 70.3 77.25
Q 73.2 76.4 76.3 74.95 78.5 73.95 77.85 73.8
M 80.75 73.15
Q 93.2 68.4 105.85 69.8 91.36640625 61.5236328125 82.675 51.425
L 82.325 51.15
M 82.675 51.425
Q 82.1265625 50.795703125 81.6 50.15
M 77.85 46.35
Q 75.55 44.95 73.3 43.65
M 55.6 78.3
Q 56.7 78.55 57.8 78.7 63.55 79.4 70.3 77.25
M 36.05 14.55
Q 35.35 34.45 54.6 37 62.15 37.8 69.85 41.85 71.6 42.7 73.3 43.65
M 13.45 11.6
Q 13.65 7.2 16.8 4 20.15 0.7 24.85 0.7 29.6 0.7 32.9 4 36.05 7.15 36.25 11.45 36.25 11.75 36.25 12.1 36.25 13.35 36.05 14.55 36.1 13.05 36.25 11.45
M 13.45 11.6
Q 10.35 13.8 9.45 21.45
L 14.9 17.6 20.4 13.7 13.45 11.6 Z
M 14.9 17.6
Q 18.9 19.2 15.35 21.55 -8.15 44.9 12.25 65.8 16.25 69.9 31.7 77.65 38.15 80.9 47.25 84.9 52 87.05 57.5 89.35 56.15 90.15 61.5 97.7
L 63 96.45 67 93.1
Q 65.65 85.15 80.75 73.15
L 77.85 73.8
M 31.7 77.65
Q 38.8 88.3 39.95 98 41.5 97.7 42.75 97.1 48 94.4 47.25 84.9
M 55.6 78.3
Q 53.3 77.8 51.2 76.95 38.9 71.65 33.9 53.1
M 39.95 98
Q 41 103.8 33.05 108.65
L 27.95 115.3 37.3 110.15 38.45 118
Q 39.1 109 47.35 108.5 45.75 103.35 40.85 107.5 43.5 102.55 42.75 97.1
M 63 96.45
L 63 106.25 68.95 108.4 63 109.55 63 116.15 60.3 111.95 48.95 120.2
Q 61.1 109.05 53.8 109.4 52.75 109.6 51.55 109.65
M 53.8 109.4
Q 61.3 107.75 61.5 97.7"/>
</defs>

<g transform="matrix( 1, 0, 0, 1, 0,0) ">
<use xlink:href="#Layer1_0_FILL"/>

<use xlink:href="#Layer1_0_1_STROKES"/>
</g>

<g transform="matrix( 1, 0, 0, 1, 0,0) ">
<use xlink:href="#Layer0_0_FILL"/>
</g>
</svg>
