
<svg xmlns="http://www.w3.org/2000/svg" version="1.1" xmlns:xlink="http://www.w3.org/1999/xlink" preserveAspectRatio="none" x="0px" y="0px" width="287px" height="286px" viewBox="0 0 287 286">
<defs>
<filter id="dropshadow" height="130%">
      <feGaussianBlur in="SourceAlpha" stdDeviation="3"/> 
      <feOffset dx="2" dy="2" result="offsetblur"/>
      <feComponentTransfer>
        <feFuncA type="linear" slope="0.2"/>
      </feComponentTransfer>
      <feMerge> 
        <feMergeNode/>
        <feMergeNode in="SourceGraphic"/> 
      </feMerge>
    </filter>
</defs>

<linearGradient id="Rocket_Tip" gradientUnits="userSpaceOnUse" x1="215.25" y1="36.05" x2="287.25" y2="36.05" spreadMethod="pad">
<stop  offset="0%" stop-color="#2C2E2C"/>

<stop  offset="100%" stop-color="#2F3753"/>

<stop  offset="100%" stop-color="#FFFFFF"/>
</linearGradient>

<linearGradient id="Rocket_Top" gradientUnits="userSpaceOnUse" x1="162.225" y1="70.4" x2="272.075" y2="70.4" spreadMethod="pad">
<stop  offset="0%" stop-color="#FC6704"/>

<stop  offset="100%" stop-color="#FDA368"/>

<stop  offset="100%" stop-color="#FFFFFF"/>
</linearGradient>

<linearGradient id="Rocket_Middle" gradientUnits="userSpaceOnUse" x1="108.22500000000001" y1="114.35" x2="238.075" y2="114.35" spreadMethod="pad">
<stop  offset="0%" stop-color="#2C2E2C"/>

<stop  offset="100%" stop-color="#2F3753"/>

<stop  offset="100%" stop-color="#FFFFFF"/>
</linearGradient>

<linearGradient id="Bottom_Fin" gradientUnits="userSpaceOnUse" x1="54.725" y1="245.35" x2="177.07500000000002" y2="245.35" spreadMethod="pad">
<stop  offset="0%" stop-color="#2C2E2C"/>

<stop  offset="100%" stop-color="#2F3753"/>

<stop  offset="100%" stop-color="#FFFFFF"/>
</linearGradient>

<linearGradient id="Top_Fin" gradientUnits="userSpaceOnUse" x1="0.22500000000000142" y1="171.9" x2="83.475" y2="171.9" spreadMethod="pad">
<stop  offset="0%" stop-color="#2C2E2C"/>

<stop  offset="100%" stop-color="#2F3753"/>

<stop  offset="100%" stop-color="#FFFFFF"/>
</linearGradient>

<linearGradient id="Middle_Fin" gradientUnits="userSpaceOnUse" x1="0.25" y1="0.1" x2="0.25" y2="0.1" spreadMethod="pad">
<stop  offset="0%" stop-color="#2C2E2C"/>

<stop  offset="100%" stop-color="#2F3753"/>

<stop  offset="100%" stop-color="#2F3753"/>
</linearGradient>

<linearGradient id="Rocket_Bottom" gradientUnits="userSpaceOnUse" x1="36.92499999999998" y1="173.1" x2="191.775" y2="173.1" spreadMethod="pad">
<stop  offset="0%" stop-color="#C95203"/>

<stop  offset="100%" stop-color="#FB7115"/>

<stop  offset="100%" stop-color="#FFFFFF"/>
</linearGradient>

<linearGradient id="Gradient_8" gradientUnits="userSpaceOnUse" x1="45.675" y1="153.55" x2="271.625" y2="153.55" spreadMethod="pad">
<stop  offset="0%" stop-color="#000000" stop-opacity="0.5764705882352941"/>

<stop  offset="100%" stop-color="#333333" stop-opacity="0"/>
</linearGradient>

<radialGradient id="WHITE_REFLECTION" gradientUnits="userSpaceOnUse" cx="0" cy="0" r="819.2" fx="0" fy="0" gradientTransform="matrix( 1, 0, 0, 1, -1.2,-0.8) " spreadMethod="pad">
<stop  offset="10.196078431372548%" stop-color="#FFFFFF"/>

<stop  offset="45.88235294117647%" stop-color="#FDA368" stop-opacity="0"/>
</radialGradient>

<g id="Layer1_0_FILL">
<path fill="url(#Rocket_Tip)" filter="url(#dropshadow)" stroke="none" d="
M 271.5 70.35
L 271.5 70.35 287.25 0.1 216.9 16.4 215.25 16.75
Q 249.6525390625 34.9609375 264.05 57.5 268.5529296875 64.5375 271.1 72
L 271.5 70.35 Z"/>

<path fill="url(#Rocket_Top)" filter="url(#dropshadow)" stroke="none" d="
M 271.5 70.35
L 271.1 72
Q 268.5529296875 64.5375 264.05 57.5 249.6525390625 34.9609375 215.25 16.75
L 216.9 16.4 215.3 16.65 211.85 18.3 211.9 18.35 205.7 21.7
Q 182.405078125 35.177734375 162.25 49.65 210.15 79.4 238.1 125.1 255.20234375 101.3494140625 270.9 73.15
L 271.5 70.35 Z"/>

<path fill="url(#Rocket_Middle)" filter="url(#dropshadow)" stroke="none" d="
M 234.25 130.4
Q 236.2 127.8 238.1 125.1 210.15 79.4 162.25 49.65 135.9 68.55 115 89.1 111.55 92.5 108.25 95.95 135.1 148.65 191.8 179.1 213.95 157.8 234.25 130.4 Z"/>

<path fill="url(#Bottom_Fin)" filter="url(#dropshadow)" stroke="none" d="
M 126.65 226.35
Q 156.85 253.35 54.75 287 131.6 282.15 162.75 258.35 191.5 236.4 162.7 203.75 145.25 216.75 126.65 226.35 Z"/>

<path fill="url(#Top_Fin)" filter="url(#dropshadow)" stroke="none" d="
M 83.5 125.15
Q 50.85 96.35 28.9 125.1 5.1 156.25 0.25 233.1 33.9 131 60.9 161.2 70.5 142.6 83.5 125.15 Z"/>

<path fill="url(#Middle_Fin)" stroke="none" d="
M 139.25 183.1
Q 129.25 159.1 103.25 147.1 75.4 202.65 43.6 241.1 38.65 247.05 18.25 269.1
L 34.1 253
Q 39.7 248 45.7 243.15 84.25 211.7 139.25 183.1 Z"/>

<path fill="url(#Rocket_Bottom)" filter="url(#dropshadow)" stroke="none" d="
M 103.25 147.1
Q 129.25 159.1 139.25 183.1 84.25 211.7 45.7 243.15
L 53.25 250.3
Q 91.8 244.35 126.65 226.35 145.25 216.75 162.7 203.75 177.65 192.65 191.8 179.1 135.1 148.65 108.25 95.95 94.6 110.15 83.5 125.15 70.5 142.6 60.9 161.2 42.9 196 37 234.65 36.95 234.7 36.95 234.8
L 43.6 241.1
Q 75.4 202.65 103.25 147.1 Z"/>
</g>

<g id="REFLECTIONS">
<path fill="url(#Gradient_8)" stroke="none" d="
M 264.5 56.85
Q 264.25 57.15 264.05 57.5 177.7 179.5 45.7 243.15
L 53.25 250.3
Q 56.85 248.95 54.25 250.15 122.865625 238.7802734375 179.95 189.1 229.9173828125 145.66640625 271.05 72.85
L 271.6 70.1 264.5 56.85 Z"/>

<path fill="url(#WHITE_REFLECTION)" stroke="none" d="
M 249.5 42.25
Q 252.04765625 39.82890625 222 20.4 183.2 36.9 142.8 71.2 196.65 71.15 210.2 89.2 227.85 78.6 249.5 42.25 Z"/>
</g>

<g transform="matrix( 1, 0, 0, 1, 0,0) ">
<use xlink:href="#Layer1_0_FILL"/>
</g>

<g transform="matrix( 1, 0, 0, 1, 0,0) ">
<use xlink:href="#REFLECTIONS"/>
</g>
</svg>
